<?xml version="1.0" encoding="UTF-8" standalone="no"?>
<!DOCTYPE svg PUBLIC "-//W3C//DTD SVG 1.1//EN" "http://www.w3.org/Graphics/SVG/1.1/DTD/svg11.dtd">
<svg xmlns="http://www.w3.org/2000/svg" version="1.1" viewBox="0 0 1314 1313" width="1314" height="1313">
<g stroke-width="2.0" fill="none" stroke-linecap="butt">
<path stroke="#7d6d4d" vector-effect="non-scaling-stroke" d="
  M 256.19 1197.81
  Q 296.95 1215.55 342.47 1220.61
  Q 351.54 1221.62 362.39 1222.42
  Q 377.29 1223.51 392.25 1223.51
  Q 404.38 1223.51 416.50 1223.76
  Q 428.68 1224.00 436.51 1224.01
  Q 678.00 1224.30 919.50 1224.25
  Q 931.90 1224.25 939.49 1223.71
  Q 949.48 1223.00 962.50 1221.50
  Q 1021.70 1214.68 1072.45 1186.67
  Q 1113.60 1163.96 1144.98 1128.99
  Q 1156.77 1115.86 1169.31 1096.06
  Q 1200.33 1047.12 1210.16 992.13
  Q 1211.84 982.73 1213.22 972.37
  Q 1215.77 953.23 1216.25 932.50
  Q 1217.15 893.33 1217.03 865.25
  Q 1216.25 672.75 1216.46 480.25
  Q 1216.50 438.50 1216.50 396.75
  Q 1216.50 377.88 1216.41 367.50
  Q 1216.24 348.41 1216.22 347.50
  Q 1215.38 303.75 1201.73 262.26
  Q 1198.56 252.64 1194.64 243.56
  Q 1166.05 177.29 1107.20 135.69
  Q 1099.03 129.91 1090.41 124.84
  Q 1068.73 112.08 1045.81 103.94
  Q 1006.75 90.06 964.25 87.00
  Q 942.03 85.40 919.75 85.30
  Q 878.50 85.13 837.25 85.50
  Q 794.63 85.88 752.00 85.84
  Q 624.62 85.75 497.25 85.81
  Q 477.37 85.82 457.50 85.52
  Q 417.37 84.93 377.25 85.30
  Q 356.52 85.50 342.50 86.75
  Q 251.74 94.86 182.42 153.19
  Q 160.80 171.37 143.50 195.00
  Q 103.33 249.86 94.32 317.01
  Q 91.88 335.17 91.37 353.50
  Q 91.01 366.46 91.00 384.25
  Q 90.91 600.24 91.23 751.75
  Q 91.25 761.05 91.22 771.75
  Q 91.00 846.30 91.69 920.85
  Q 91.69 920.96 91.72 932.65
  Q 91.80 962.96 96.19 992.97
  Q 96.80 997.17 97.58 1001.33
  Q 108.37 1059.13 142.54 1106.21
  Q 148.48 1114.39 154.76 1122.03
  Q 176.91 1148.97 205.62 1169.11
  Q 230.81 1186.77 256.19 1197.81"
/>
<path stroke="#7d6d4d" vector-effect="non-scaling-stroke" d="
  M 397.33 856.29
  Q 397.53 856.62 398.01 856.59
  Q 398.73 856.56 398.98 856.62
  Q 408.32 858.96 421.75 859.75
  Q 444.59 861.10 461.74 859.65
  Q 484.25 857.74 505.30 849.62
  Q 527.80 840.95 547.45 827.02
  Q 568.56 812.06 582.56 797.56
  Q 596.10 783.55 608.68 768.66
  Q 615.12 761.03 620.29 752.50
  Q 621.50 750.49 621.99 747.90
  C 622.06 747.57 621.76 747.27 621.43 747.35
  Q 608.00 750.34 595.38 753.71
  Q 550.16 765.83 504.24 774.96
  Q 486.90 778.41 469.25 779.45
  Q 452.65 780.44 435.25 777.75
  Q 409.85 773.83 388.00 761.50
  Q 374.87 754.09 363.41 742.36
  Q 356.75 735.54 352.26 728.63
  Q 347.23 720.88 344.25 712.75
  Q 336.80 692.41 332.65 668.52
  Q 326.72 634.27 326.20 599.50
  Q 325.79 572.60 327.46 545.75
  Q 329.55 512.15 333.76 478.75
  Q 337.15 451.92 344.44 417.44
  Q 350.47 388.93 357.41 367.28
  C 357.51 366.96 357.70 366.68 357.95 366.50
  Q 359.67 365.26 362.25 365.25
  Q 476.92 364.79 564.26 365.20
  Q 571.59 365.23 584.25 365.63
  Q 595.12 365.98 606.01 366.00
  Q 609.59 366.01 607.39 363.18
  Q 599.31 352.77 589.69 343.06
  Q 584.36 337.69 559.37 310.65
  Q 549.88 300.38 539.67 290.80
  Q 538.17 289.38 536.11 289.19
  Q 531.51 288.76 526.25 288.72
  Q 390.50 287.89 254.73 288.50
  C 253.74 288.51 252.85 289.11 252.47 290.03
  Q 251.03 293.60 250.06 297.56
  Q 231.72 372.58 221.99 449.19
  Q 214.70 506.56 217.24 564.27
  Q 217.68 574.40 218.64 584.20
  Q 220.72 605.45 224.69 631.81
  Q 240.19 734.75 284.65 826.72
  Q 289.03 835.79 293.76 844.52
  Q 314.13 882.17 337.31 912.94
  Q 363.57 947.80 398.12 980.49
  Q 404.66 986.69 413.02 993.83
  Q 427.43 1006.15 434.06 1011.19
  Q 480.29 1046.30 531.93 1072.83
  Q 574.59 1094.75 618.74 1113.53
  Q 634.38 1120.19 649.84 1127.27
  Q 652.38 1128.43 655.56 1127.06
  Q 705.99 1105.38 738.94 1090.19
  Q 775.94 1073.13 813.41 1050.42
  Q 822.19 1045.10 830.31 1039.74
  Q 861.22 1019.32 886.94 997.69
  Q 935.20 957.10 971.72 903.17
  Q 991.74 873.60 1009.94 837.44
  Q 1043.10 771.53 1061.27 702.69
  Q 1063.71 693.45 1065.99 683.26
  Q 1079.41 623.18 1084.10 561.74
  Q 1087.18 521.40 1085.25 487.75
  Q 1081.72 426.27 1070.20 357.51
  Q 1065.84 331.45 1059.72 305.76
  Q 1057.82 297.78 1054.97 289.14
  C 1054.79 288.61 1054.30 288.25 1053.74 288.25
  Q 913.34 287.65 772.92 288.25
  Q 772.27 288.25 770.60 288.47
  Q 769.44 288.63 768.25 288.51
  Q 764.54 288.17 762.14 290.88
  Q 756.42 297.35 751.35 304.34
  Q 746.75 310.68 746.70 310.74
  Q 722.30 343.56 697.82 376.32
  Q 656.50 431.61 616.94 488.19
  Q 599.83 512.65 569.20 554.73
  Q 563.25 562.91 557.56 570.99
  Q 531.55 607.98 523.69 618.69
  Q 515.33 630.07 509.11 641.03
  Q 505.40 647.55 502.66 655.59
  Q 494.31 680.03 488.51 707.03
  C 488.36 707.74 488.80 708.43 489.50 708.60
  Q 491.74 709.14 494.75 709.13
  Q 525.75 709.02 556.75 709.00
  Q 566.21 709.00 576.75 708.87
  Q 618.87 708.36 660.99 708.47
  Q 671.43 708.49 681.01 708.44
  Q 721.07 708.20 730.50 708.50
  Q 753.62 709.24 777.99 709.25
  C 778.55 709.25 779.00 708.80 779.00 708.24
  Q 778.98 705.48 778.13 702.33
  Q 768.77 667.70 759.44 633.06
  Q 758.60 629.95 755.71 630.15
  Q 754.35 630.25 754.30 630.25
  Q 708.15 630.44 662.00 630.90
  Q 637.72 631.14 614.56 630.83
  Q 612.68 630.80 613.80 629.29
  Q 642.28 590.70 669.03 554.25
  Q 674.58 546.67 680.69 538.00
  Q 715.61 488.43 751.72 439.71
  Q 757.66 431.71 763.52 423.56
  Q 778.01 403.43 792.71 383.44
  Q 792.76 383.36 796.36 378.62
  Q 800.55 373.09 803.39 367.82
  Q 804.32 366.07 806.30 365.89
  Q 817.48 364.83 827.25 364.85
  Q 885.63 365.00 944.39 365.00
  Q 946.46 365.00 947.04 366.99
  Q 963.84 425.10 970.49 486.05
  Q 971.83 498.35 972.60 505.94
  Q 976.58 545.18 975.75 589.50
  Q 973.91 687.96 942.20 778.23
  Q 919.80 842.01 881.69 892.44
  Q 859.87 921.31 828.87 946.81
  Q 821.37 952.98 813.25 959.31
  Q 789.73 977.64 764.25 992.00
  Q 716.44 1018.94 663.18 1034.16
  Q 656.70 1036.01 654.88 1036.16
  Q 650.71 1036.52 646.25 1035.00
  Q 612.56 1023.54 604.06 1020.44
  Q 540.01 997.05 486.28 955.52
  Q 478.34 949.38 470.87 942.78
  Q 443.28 918.43 418.69 888.56
  Q 405.66 872.74 396.74 857.00
  Q 396.58 856.71 396.32 856.43
  Q 395.07 855.09 396.72 855.64
  C 396.88 855.70 397.11 855.94 397.33 856.29"
/>
</g>
<path fill="#cfaf76" d="
  M 124.69 120.69
  Q 145.47 99.63 171.67 81.97
  Q 211.86 54.89 257.25 39.50
  Q 268.26 35.77 280.16 33.03
  Q 282.43 32.50 296.80 29.38
  Q 305.13 27.57 313.50 26.01
  Q 320.12 24.78 326.82 24.15
  Q 329.15 23.93 335.24 23.08
  Q 339.46 22.49 343.75 22.49
  Q 370.23 22.50 396.72 22.50
  Q 396.80 22.50 411.78 22.69
  Q 421.03 22.81 434.00 22.50
  Q 458.22 21.92 538.50 22.43
  Q 548.05 22.49 558.50 22.40
  Q 609.63 21.97 660.75 22.51
  Q 710.37 23.04 760.00 22.54
  Q 825.88 21.88 891.75 22.63
  Q 903.02 22.76 911.75 22.77
  Q 954.14 22.83 965.00 22.50
  Q 975.89 22.17 982.00 23.50
  Q 984.96 24.15 987.31 24.28
  Q 992.12 24.55 992.65 24.63
  Q 1001.33 25.92 1009.93 27.66
  Q 1012.12 28.10 1027.15 30.97
  Q 1039.24 33.28 1051.01 36.97
  Q 1097.94 51.67 1134.94 76.56
  Q 1167.36 98.37 1195.87 130.27
  Q 1202.52 137.72 1208.66 145.65
  Q 1233.93 178.33 1251.76 215.75
  Q 1260.35 233.79 1266.07 252.88
  Q 1268.89 262.31 1271.35 272.16
  Q 1276.40 292.40 1278.27 313.25
  Q 1279.41 325.88 1280.01 338.55
  Q 1280.01 338.70 1280.70 349.93
  Q 1281.08 356.19 1280.96 362.47
  Q 1280.75 373.90 1280.75 374.04
  Q 1280.75 431.02 1280.77 488.00
  Q 1280.78 512.75 1280.79 537.50
  Q 1280.83 642.96 1281.45 748.43
  Q 1281.47 750.38 1281.24 763.58
  Q 1281.15 768.64 1281.29 773.70
  Q 1281.50 780.77 1281.50 783.81
  Q 1281.50 864.78 1281.50 945.75
  Q 1281.50 956.14 1280.47 965.70
  Q 1278.46 984.34 1276.25 999.00
  Q 1274.77 1008.83 1272.00 1019.39
  Q 1270.18 1026.30 1266.46 1038.60
  Q 1257.09 1069.57 1243.44 1098.94
  Q 1240.73 1104.76 1232.26 1119.18
  Q 1212.91 1152.14 1185.69 1181.19
  Q 1177.28 1190.16 1169.97 1196.22
  Q 1161.57 1203.19 1153.21 1210.21
  Q 1139.89 1221.40 1124.92 1230.24
  Q 1092.83 1249.19 1058.31 1263.10
  Q 1048.74 1266.96 1039.48 1269.83
  Q 980.30 1288.14 918.00 1287.00
  Q 889.68 1286.48 753.19 1286.59
  Q 570.08 1286.73 386.98 1286.75
  Q 386.91 1286.75 378.02 1286.81
  Q 343.59 1287.04 310.50 1280.50
  Q 280.77 1274.63 251.47 1264.35
  Q 241.67 1260.92 232.81 1257.16
  Q 169.56 1230.31 120.56 1181.69
  Q 113.35 1174.53 100.49 1158.84
  Q 93.39 1150.18 88.32 1142.96
  Q 59.37 1101.72 43.71 1053.79
  Q 40.68 1044.51 38.24 1034.57
  Q 33.72 1016.14 30.98 997.34
  Q 29.56 987.56 27.99 977.79
  Q 27.00 971.66 27.00 965.63
  Q 27.00 957.41 27.00 949.19
  Q 27.00 944.13 26.43 938.85
  Q 25.54 930.48 25.50 928.50
  Q 24.51 873.38 25.19 818.25
  Q 25.35 805.34 26.22 792.47
  Q 27.00 780.91 27.00 772.51
  Q 27.00 605.50 27.00 438.50
  Q 27.00 433.35 26.67 429.98
  Q 25.14 414.51 26.44 399.08
  Q 27.26 389.30 27.28 383.87
  Q 27.38 354.93 27.07 326.00
  Q 27.01 320.85 27.82 315.76
  Q 30.09 301.40 33.14 287.18
  Q 42.74 242.34 64.59 202.08
  Q 89.29 156.56 124.69 120.69
  Z
  M 256.19 1197.81
  Q 296.95 1215.55 342.47 1220.61
  Q 351.54 1221.62 362.39 1222.42
  Q 377.29 1223.51 392.25 1223.51
  Q 404.38 1223.51 416.50 1223.76
  Q 428.68 1224.00 436.51 1224.01
  Q 678.00 1224.30 919.50 1224.25
  Q 931.90 1224.25 939.49 1223.71
  Q 949.48 1223.00 962.50 1221.50
  Q 1021.70 1214.68 1072.45 1186.67
  Q 1113.60 1163.96 1144.98 1128.99
  Q 1156.77 1115.86 1169.31 1096.06
  Q 1200.33 1047.12 1210.16 992.13
  Q 1211.84 982.73 1213.22 972.37
  Q 1215.77 953.23 1216.25 932.50
  Q 1217.15 893.33 1217.03 865.25
  Q 1216.25 672.75 1216.46 480.25
  Q 1216.50 438.50 1216.50 396.75
  Q 1216.50 377.88 1216.41 367.50
  Q 1216.24 348.41 1216.22 347.50
  Q 1215.38 303.75 1201.73 262.26
  Q 1198.56 252.64 1194.64 243.56
  Q 1166.05 177.29 1107.20 135.69
  Q 1099.03 129.91 1090.41 124.84
  Q 1068.73 112.08 1045.81 103.94
  Q 1006.75 90.06 964.25 87.00
  Q 942.03 85.40 919.75 85.30
  Q 878.50 85.13 837.25 85.50
  Q 794.63 85.88 752.00 85.84
  Q 624.62 85.75 497.25 85.81
  Q 477.37 85.82 457.50 85.52
  Q 417.37 84.93 377.25 85.30
  Q 356.52 85.50 342.50 86.75
  Q 251.74 94.86 182.42 153.19
  Q 160.80 171.37 143.50 195.00
  Q 103.33 249.86 94.32 317.01
  Q 91.88 335.17 91.37 353.50
  Q 91.01 366.46 91.00 384.25
  Q 90.91 600.24 91.23 751.75
  Q 91.25 761.05 91.22 771.75
  Q 91.00 846.30 91.69 920.85
  Q 91.69 920.96 91.72 932.65
  Q 91.80 962.96 96.19 992.97
  Q 96.80 997.17 97.58 1001.33
  Q 108.37 1059.13 142.54 1106.21
  Q 148.48 1114.39 154.76 1122.03
  Q 176.91 1148.97 205.62 1169.11
  Q 230.81 1186.77 256.19 1197.81
  Z"
/>
<path fill="#2b2a23" d="
  M 256.19 1197.81
  Q 230.81 1186.77 205.62 1169.11
  Q 176.91 1148.97 154.76 1122.03
  Q 148.48 1114.39 142.54 1106.21
  Q 108.37 1059.13 97.58 1001.33
  Q 96.80 997.17 96.19 992.97
  Q 91.80 962.96 91.72 932.65
  Q 91.69 920.96 91.69 920.85
  Q 91.00 846.30 91.22 771.75
  Q 91.25 761.05 91.23 751.75
  Q 90.91 600.24 91.00 384.25
  Q 91.01 366.46 91.37 353.50
  Q 91.88 335.17 94.32 317.01
  Q 103.33 249.86 143.50 195.00
  Q 160.80 171.37 182.42 153.19
  Q 251.74 94.86 342.50 86.75
  Q 356.52 85.50 377.25 85.30
  Q 417.37 84.93 457.50 85.52
  Q 477.37 85.82 497.25 85.81
  Q 624.62 85.75 752.00 85.84
  Q 794.63 85.88 837.25 85.50
  Q 878.50 85.13 919.75 85.30
  Q 942.03 85.40 964.25 87.00
  Q 1006.75 90.06 1045.81 103.94
  Q 1068.73 112.08 1090.41 124.84
  Q 1099.03 129.91 1107.20 135.69
  Q 1166.05 177.29 1194.64 243.56
  Q 1198.56 252.64 1201.73 262.26
  Q 1215.38 303.75 1216.22 347.50
  Q 1216.24 348.41 1216.41 367.50
  Q 1216.50 377.88 1216.50 396.75
  Q 1216.50 438.50 1216.46 480.25
  Q 1216.25 672.75 1217.03 865.25
  Q 1217.15 893.33 1216.25 932.50
  Q 1215.77 953.23 1213.22 972.37
  Q 1211.84 982.73 1210.16 992.13
  Q 1200.33 1047.12 1169.31 1096.06
  Q 1156.77 1115.86 1144.98 1128.99
  Q 1113.60 1163.96 1072.45 1186.67
  Q 1021.70 1214.68 962.50 1221.50
  Q 949.48 1223.00 939.49 1223.71
  Q 931.90 1224.25 919.50 1224.25
  Q 678.00 1224.30 436.51 1224.01
  Q 428.68 1224.00 416.50 1223.76
  Q 404.38 1223.51 392.25 1223.51
  Q 377.29 1223.51 362.39 1222.42
  Q 351.54 1221.62 342.47 1220.61
  Q 296.95 1215.55 256.19 1197.81
  Z
  M 397.33 856.29
  Q 397.53 856.62 398.01 856.59
  Q 398.73 856.56 398.98 856.62
  Q 408.32 858.96 421.75 859.75
  Q 444.59 861.10 461.74 859.65
  Q 484.25 857.74 505.30 849.62
  Q 527.80 840.95 547.45 827.02
  Q 568.56 812.06 582.56 797.56
  Q 596.10 783.55 608.68 768.66
  Q 615.12 761.03 620.29 752.50
  Q 621.50 750.49 621.99 747.90
  C 622.06 747.57 621.76 747.27 621.43 747.35
  Q 608.00 750.34 595.38 753.71
  Q 550.16 765.83 504.24 774.96
  Q 486.90 778.41 469.25 779.45
  Q 452.65 780.44 435.25 777.75
  Q 409.85 773.83 388.00 761.50
  Q 374.87 754.09 363.41 742.36
  Q 356.75 735.54 352.26 728.63
  Q 347.23 720.88 344.25 712.75
  Q 336.80 692.41 332.65 668.52
  Q 326.72 634.27 326.20 599.50
  Q 325.79 572.60 327.46 545.75
  Q 329.55 512.15 333.76 478.75
  Q 337.15 451.92 344.44 417.44
  Q 350.47 388.93 357.41 367.28
  C 357.51 366.96 357.70 366.68 357.95 366.50
  Q 359.67 365.26 362.25 365.25
  Q 476.92 364.79 564.26 365.20
  Q 571.59 365.23 584.25 365.63
  Q 595.12 365.98 606.01 366.00
  Q 609.59 366.01 607.39 363.18
  Q 599.31 352.77 589.69 343.06
  Q 584.36 337.69 559.37 310.65
  Q 549.88 300.38 539.67 290.80
  Q 538.17 289.38 536.11 289.19
  Q 531.51 288.76 526.25 288.72
  Q 390.50 287.89 254.73 288.50
  C 253.74 288.51 252.85 289.11 252.47 290.03
  Q 251.03 293.60 250.06 297.56
  Q 231.72 372.58 221.99 449.19
  Q 214.70 506.56 217.24 564.27
  Q 217.68 574.40 218.64 584.20
  Q 220.72 605.45 224.69 631.81
  Q 240.19 734.75 284.65 826.72
  Q 289.03 835.79 293.76 844.52
  Q 314.13 882.17 337.31 912.94
  Q 363.57 947.80 398.12 980.49
  Q 404.66 986.69 413.02 993.83
  Q 427.43 1006.15 434.06 1011.19
  Q 480.29 1046.30 531.93 1072.83
  Q 574.59 1094.75 618.74 1113.53
  Q 634.38 1120.19 649.84 1127.27
  Q 652.38 1128.43 655.56 1127.06
  Q 705.99 1105.38 738.94 1090.19
  Q 775.94 1073.13 813.41 1050.42
  Q 822.19 1045.10 830.31 1039.74
  Q 861.22 1019.32 886.94 997.69
  Q 935.20 957.10 971.72 903.17
  Q 991.74 873.60 1009.94 837.44
  Q 1043.10 771.53 1061.27 702.69
  Q 1063.71 693.45 1065.99 683.26
  Q 1079.41 623.18 1084.10 561.74
  Q 1087.18 521.40 1085.25 487.75
  Q 1081.72 426.27 1070.20 357.51
  Q 1065.84 331.45 1059.72 305.76
  Q 1057.82 297.78 1054.97 289.14
  C 1054.79 288.61 1054.30 288.25 1053.74 288.25
  Q 913.34 287.65 772.92 288.25
  Q 772.27 288.25 770.60 288.47
  Q 769.44 288.63 768.25 288.51
  Q 764.54 288.17 762.14 290.88
  Q 756.42 297.35 751.35 304.34
  Q 746.75 310.68 746.70 310.74
  Q 722.30 343.56 697.82 376.32
  Q 656.50 431.61 616.94 488.19
  Q 599.83 512.65 569.20 554.73
  Q 563.25 562.91 557.56 570.99
  Q 531.55 607.98 523.69 618.69
  Q 515.33 630.07 509.11 641.03
  Q 505.40 647.55 502.66 655.59
  Q 494.31 680.03 488.51 707.03
  C 488.36 707.74 488.80 708.43 489.50 708.60
  Q 491.74 709.14 494.75 709.13
  Q 525.75 709.02 556.75 709.00
  Q 566.21 709.00 576.75 708.87
  Q 618.87 708.36 660.99 708.47
  Q 671.43 708.49 681.01 708.44
  Q 721.07 708.20 730.50 708.50
  Q 753.62 709.24 777.99 709.25
  C 778.55 709.25 779.00 708.80 779.00 708.24
  Q 778.98 705.48 778.13 702.33
  Q 768.77 667.70 759.44 633.06
  Q 758.60 629.95 755.71 630.15
  Q 754.35 630.25 754.30 630.25
  Q 708.15 630.44 662.00 630.90
  Q 637.72 631.14 614.56 630.83
  Q 612.68 630.80 613.80 629.29
  Q 642.28 590.70 669.03 554.25
  Q 674.58 546.67 680.69 538.00
  Q 715.61 488.43 751.72 439.71
  Q 757.66 431.71 763.52 423.56
  Q 778.01 403.43 792.71 383.44
  Q 792.76 383.36 796.36 378.62
  Q 800.55 373.09 803.39 367.82
  Q 804.32 366.07 806.30 365.89
  Q 817.48 364.83 827.25 364.85
  Q 885.63 365.00 944.39 365.00
  Q 946.46 365.00 947.04 366.99
  Q 963.84 425.10 970.49 486.05
  Q 971.83 498.35 972.60 505.94
  Q 976.58 545.18 975.75 589.50
  Q 973.91 687.96 942.20 778.23
  Q 919.80 842.01 881.69 892.44
  Q 859.87 921.31 828.87 946.81
  Q 821.37 952.98 813.25 959.31
  Q 789.73 977.64 764.25 992.00
  Q 716.44 1018.94 663.18 1034.16
  Q 656.70 1036.01 654.88 1036.16
  Q 650.71 1036.52 646.25 1035.00
  Q 612.56 1023.54 604.06 1020.44
  Q 540.01 997.05 486.28 955.52
  Q 478.34 949.38 470.87 942.78
  Q 443.28 918.43 418.69 888.56
  Q 405.66 872.74 396.74 857.00
  Q 396.58 856.71 396.32 856.43
  Q 395.07 855.09 396.72 855.64
  C 396.88 855.70 397.11 855.94 397.33 856.29
  Z"
/>
<path fill="#cfaf76" d="
  M 396.72 855.64
  Q 395.07 855.09 396.32 856.43
  Q 396.58 856.71 396.74 857.00
  Q 405.66 872.74 418.69 888.56
  Q 443.28 918.43 470.87 942.78
  Q 478.34 949.38 486.28 955.52
  Q 540.01 997.05 604.06 1020.44
  Q 612.56 1023.54 646.25 1035.00
  Q 650.71 1036.52 654.88 1036.16
  Q 656.70 1036.01 663.18 1034.16
  Q 716.44 1018.94 764.25 992.00
  Q 789.73 977.64 813.25 959.31
  Q 821.37 952.98 828.87 946.81
  Q 859.87 921.31 881.69 892.44
  Q 919.80 842.01 942.20 778.23
  Q 973.91 687.96 975.75 589.50
  Q 976.58 545.18 972.60 505.94
  Q 971.83 498.35 970.49 486.05
  Q 963.84 425.10 947.04 366.99
  Q 946.46 365.00 944.39 365.00
  Q 885.63 365.00 827.25 364.85
  Q 817.48 364.83 806.30 365.89
  Q 804.32 366.07 803.39 367.82
  Q 800.55 373.09 796.36 378.62
  Q 792.76 383.36 792.71 383.44
  Q 778.01 403.43 763.52 423.56
  Q 757.66 431.71 751.72 439.71
  Q 715.61 488.43 680.69 538.00
  Q 674.58 546.67 669.03 554.25
  Q 642.28 590.70 613.80 629.29
  Q 612.68 630.80 614.56 630.83
  Q 637.72 631.14 662.00 630.90
  Q 708.15 630.44 754.30 630.25
  Q 754.35 630.25 755.71 630.15
  Q 758.60 629.95 759.44 633.06
  Q 768.77 667.70 778.13 702.33
  Q 778.98 705.48 779.00 708.24
  C 779.00 708.80 778.55 709.25 777.99 709.25
  Q 753.62 709.24 730.50 708.50
  Q 721.07 708.20 681.01 708.44
  Q 671.43 708.49 660.99 708.47
  Q 618.87 708.36 576.75 708.87
  Q 566.21 709.00 556.75 709.00
  Q 525.75 709.02 494.75 709.13
  Q 491.74 709.14 489.50 708.60
  C 488.80 708.43 488.36 707.74 488.51 707.03
  Q 494.31 680.03 502.66 655.59
  Q 505.40 647.55 509.11 641.03
  Q 515.33 630.07 523.69 618.69
  Q 531.55 607.98 557.56 570.99
  Q 563.25 562.91 569.20 554.73
  Q 599.83 512.65 616.94 488.19
  Q 656.50 431.61 697.82 376.32
  Q 722.30 343.56 746.70 310.74
  Q 746.75 310.68 751.35 304.34
  Q 756.42 297.35 762.14 290.88
  Q 764.54 288.17 768.25 288.51
  Q 769.44 288.63 770.60 288.47
  Q 772.27 288.25 772.92 288.25
  Q 913.34 287.65 1053.74 288.25
  C 1054.30 288.25 1054.79 288.61 1054.97 289.14
  Q 1057.82 297.78 1059.72 305.76
  Q 1065.84 331.45 1070.20 357.51
  Q 1081.72 426.27 1085.25 487.75
  Q 1087.18 521.40 1084.10 561.74
  Q 1079.41 623.18 1065.99 683.26
  Q 1063.71 693.45 1061.27 702.69
  Q 1043.10 771.53 1009.94 837.44
  Q 991.74 873.60 971.72 903.17
  Q 935.20 957.10 886.94 997.69
  Q 861.22 1019.32 830.31 1039.74
  Q 822.19 1045.10 813.41 1050.42
  Q 775.94 1073.13 738.94 1090.19
  Q 705.99 1105.38 655.56 1127.06
  Q 652.38 1128.43 649.84 1127.27
  Q 634.38 1120.19 618.74 1113.53
  Q 574.59 1094.75 531.93 1072.83
  Q 480.29 1046.30 434.06 1011.19
  Q 427.43 1006.15 413.02 993.83
  Q 404.66 986.69 398.12 980.49
  Q 363.57 947.80 337.31 912.94
  Q 314.13 882.17 293.76 844.52
  Q 289.03 835.79 284.65 826.72
  Q 240.19 734.75 224.69 631.81
  Q 220.72 605.45 218.64 584.20
  Q 217.68 574.40 217.24 564.27
  Q 214.70 506.56 221.99 449.19
  Q 231.72 372.58 250.06 297.56
  Q 251.03 293.60 252.47 290.03
  C 252.85 289.11 253.74 288.51 254.73 288.50
  Q 390.50 287.89 526.25 288.72
  Q 531.51 288.76 536.11 289.19
  Q 538.17 289.38 539.67 290.80
  Q 549.88 300.38 559.37 310.65
  Q 584.36 337.69 589.69 343.06
  Q 599.31 352.77 607.39 363.18
  Q 609.59 366.01 606.01 366.00
  Q 595.12 365.98 584.25 365.63
  Q 571.59 365.23 564.26 365.20
  Q 476.92 364.79 362.25 365.25
  Q 359.67 365.26 357.95 366.50
  C 357.70 366.68 357.51 366.96 357.41 367.28
  Q 350.47 388.93 344.44 417.44
  Q 337.15 451.92 333.76 478.75
  Q 329.55 512.15 327.46 545.75
  Q 325.79 572.60 326.20 599.50
  Q 326.72 634.27 332.65 668.52
  Q 336.80 692.41 344.25 712.75
  Q 347.23 720.88 352.26 728.63
  Q 356.75 735.54 363.41 742.36
  Q 374.87 754.09 388.00 761.50
  Q 409.85 773.83 435.25 777.75
  Q 452.65 780.44 469.25 779.45
  Q 486.90 778.41 504.24 774.96
  Q 550.16 765.83 595.38 753.71
  Q 608.00 750.34 621.43 747.35
  C 621.76 747.27 622.06 747.57 621.99 747.90
  Q 621.50 750.49 620.29 752.50
  Q 615.12 761.03 608.68 768.66
  Q 596.10 783.55 582.56 797.56
  Q 568.56 812.06 547.45 827.02
  Q 527.80 840.95 505.30 849.62
  Q 484.25 857.74 461.74 859.65
  Q 444.59 861.10 421.75 859.75
  Q 408.32 858.96 398.98 856.62
  Q 398.73 856.56 398.01 856.59
  Q 397.53 856.62 397.33 856.29
  C 397.11 855.94 396.88 855.70 396.72 855.64
  Z"
/>
</svg>
