<svg aria-hidden="true" style="position: absolute; width: 0; height: 0; overflow: hidden;" version="1.1" xmlns="http://www.w3.org/2000/svg" xmlns:xlink="http://www.w3.org/1999/xlink">
<defs>
<symbol id="icon-code" viewBox="0 0 32 30" stroke-width="0.1" fill="currentColor">
<path d="M9.641 21.859l-0.781 0.781c-0.203 0.203-0.516 0.203-0.719 0l-7.281-7.281c-0.203-0.203-0.203-0.516 0-0.719l7.281-7.281c0.203-0.203 0.516-0.203 0.719 0l0.781 0.781c0.203 0.203 0.203 0.516 0 0.719l-6.141 6.141 6.141 6.141c0.203 0.203 0.203 0.516 0 0.719zM18.875 5.187l-5.828 20.172c-0.078 0.266-0.359 0.422-0.609 0.344l-0.969-0.266c-0.266-0.078-0.422-0.359-0.344-0.625l5.828-20.172c0.078-0.266 0.359-0.422 0.609-0.344l0.969 0.266c0.266 0.078 0.422 0.359 0.344 0.625zM29.141 15.359l-7.281 7.281c-0.203 0.203-0.516 0.203-0.719 0l-0.781-0.781c-0.203-0.203-0.203-0.516 0-0.719l6.141-6.141-6.141-6.141c-0.203-0.203-0.203-0.516 0-0.719l0.781-0.781c0.203-0.203 0.516-0.203 0.719 0l7.281 7.281c0.203 0.203 0.203 0.516 0 0.719z"></path>
</symbol>
<symbol id="icon-mail" viewBox="0 0 32 32" fill="currentColor">
<path d="M15.996 15.457l16.004-7.539v-3.918h-32v3.906zM16.004 19.879l-16.004-7.559v15.68h32v-15.656z"></path>
</symbol>
<symbol id="icon-github" viewBox="0 0 34 34" fill="currentColor">
<path d="M16 0.395c-8.836 0-16 7.163-16 16 0 7.069 4.585 13.067 10.942 15.182 0.8 0.148 1.094-0.347 1.094-0.77 0-0.381-0.015-1.642-0.022-2.979-4.452 0.968-5.391-1.888-5.391-1.888-0.728-1.849-1.776-2.341-1.776-2.341-1.452-0.993 0.11-0.973 0.11-0.973 1.606 0.113 2.452 1.649 2.452 1.649 1.427 2.446 3.743 1.739 4.656 1.33 0.143-1.034 0.558-1.74 1.016-2.14-3.554-0.404-7.29-1.777-7.29-7.907 0-1.747 0.625-3.174 1.649-4.295-0.166-0.403-0.714-2.030 0.155-4.234 0 0 1.344-0.43 4.401 1.64 1.276-0.355 2.645-0.532 4.005-0.539 1.359 0.006 2.729 0.184 4.008 0.539 3.054-2.070 4.395-1.64 4.395-1.64 0.871 2.204 0.323 3.831 0.157 4.234 1.026 1.12 1.647 2.548 1.647 4.295 0 6.145-3.743 7.498-7.306 7.895 0.574 0.497 1.085 1.47 1.085 2.963 0 2.141-0.019 3.864-0.019 4.391 0 0.426 0.288 0.925 1.099 0.768 6.354-2.118 10.933-8.113 10.933-15.18 0-8.837-7.164-16-16-16z"></path>
</symbol>
<symbol id="icon-import_contacts" viewBox="0 0 32 32" fill="currentColor">
<path d="M28 24.688v-15.375q-2.063-0.625-4.688-0.625-4.063 0-7.313 2v15.313q3.25-2 7.313-2 2.438 0 4.688 0.688zM23.313 6q4.75 0 7.375 2v19.438q0 0.25-0.219 0.469t-0.469 0.219q-0.188 0-0.313-0.063-2.563-1.375-6.375-1.375-4.063 0-7.313 2-2.688-2-7.313-2-3.375 0-6.375 1.438-0.063 0-0.156 0.031t-0.156 0.031q-0.25 0-0.469-0.188t-0.219-0.438v-19.563q2.688-2 7.375-2 4.625 0 7.313 2 2.688-2 7.313-2z"></path>
</symbol>
<symbol id="icon-color_lens" viewBox="0 0 32 32">
<path d="M23.313 16q0.813 0 1.406-0.563t0.594-1.438-0.594-1.438-1.406-0.563-1.406 0.563-0.594 1.438 0.594 1.438 1.406 0.563zM19.313 10.688q0.813 0 1.406-0.594t0.594-1.406-0.594-1.406-1.406-0.594-1.406 0.594-0.594 1.406 0.594 1.406 1.406 0.594zM12.688 10.688q0.813 0 1.406-0.594t0.594-1.406-0.594-1.406-1.406-0.594-1.406 0.594-0.594 1.406 0.594 1.406 1.406 0.594zM8.688 16q0.813 0 1.406-0.563t0.594-1.438-0.594-1.438-1.406-0.563-1.406 0.563-0.594 1.438 0.594 1.438 1.406 0.563zM16 4q4.938 0 8.469 3.125t3.531 7.563q0 2.75-1.969 4.688t-4.719 1.938h-2.313q-0.875 0-1.438 0.594t-0.563 1.406q0 0.688 0.5 1.313t0.5 1.375q0 0.875-0.563 1.438t-1.438 0.563q-5 0-8.5-3.5t-3.5-8.5 3.5-8.5 8.5-3.5z"></path>
</symbol>
<symbol id="icon-tools" viewBox="0 0 40 40" stroke-width="0.6" fill="currentColor">
<path d="M0.211 5.646c-0.847 0.848-0.666 2.042 0.008 2.715 0.027 0.026 2.734 2.612 6.541 6.419 0.098 0.098 0.226 0.146 0.354 0.146s0.256-0.049 0.354-0.146c0.195-0.195 0.195-0.512 0-0.707-0.574-0.574-1.12-1.117-1.638-1.631l1.589-1.589c0.195-0.195 0.195-0.512 0-0.707s-0.512-0.195-0.707 0l-1.593 1.593c-0.891-0.88-1.676-1.648-2.315-2.271l3.615-3.615c0.195-0.195 0.195-0.512 0-0.707s-0.512-0.195-0.707 0l-3.626 3.626c-0.736-0.713-1.16-1.118-1.167-1.125-0.211-0.211-0.488-0.805 0-1.293l5-5c0.193-0.196 0.707-0.585 1.271-0.024 0.025 0.028 2.55 2.896 6.404 6.75 0.195 0.195 0.512 0.195 0.707 0s0.195-0.512 0-0.707c-3.83-3.829-6.336-6.675-6.382-6.727-0.932-0.93-2.056-0.651-2.707 0l-5.001 5zM21.419 24.146c-0.195-0.195-0.512-0.195-0.707 0l-1.591 1.59c-0.485-0.491-0.994-1.005-1.53-1.541-0.195-0.195-0.512-0.195-0.707 0s-0.195 0.512 0 0.707c3.704 3.703 6.291 6.469 6.328 6.509 0.343 0.344 0.813 0.533 1.323 0.533v0c0.525 0 1.056-0.205 1.385-0.535l4.998-5.057c0.629-0.629 0.665-1.696 0.078-2.285l-6.706-6.705c-0.195-0.195-0.512-0.195-0.707 0s-0.195 0.512 0 0.707l6.706 6.705c0.2 0.2 0.162 0.632-0.079 0.873l-4.999 5.057c-0.115 0.116-0.376 0.24-0.676 0.24 0 0 0 0 0 0-0.172 0-0.418-0.042-0.604-0.229-0.010-0.011-0.429-0.458-1.156-1.219l3.644-3.644c0.195-0.195 0.195-0.512 0-0.707s-0.512-0.195-0.707 0l-3.629 3.629c-0.624-0.649-1.389-1.438-2.26-2.326l1.596-1.596c0.195-0.194 0.195-0.51 0-0.706zM-0.293 31.829c0.096 0.098 0.225 0.15 0.358 0.15 0.048 0 0.096-0.007 0.143-0.021l10-2.979c0.081-0.024 0.153-0.067 0.212-0.127l17.090-17.205c0.024-0.024 0.036-0.055 0.054-0.082l3.656-3.656c0.294-0.295 0.457-0.686 0.457-1.103s-0.163-0.807-0.457-1.1l-5.235-5.234c-0.588-0.588-1.615-0.588-2.203 0l-3.739 3.739c-0.024 0.024-0.037 0.055-0.055 0.083l-17.116 17.117c-0.056 0.056-0.098 0.124-0.122 0.199l-3.16 9.715c-0.058 0.177-0.013 0.37 0.117 0.504zM20.425 5.271l1.039 1.039-15.523 15.565-1.727-0.392 16.211-16.212zM6.565 22.666l15.607-15.648 2.436 2.436-15.748 15.546h-2.295v-2.334zM26.449 11.296l-16.244 16.354-0.577-2.002 15.687-15.487 1.134 1.135zM3.558 22.359l2.007 0.456v2.685c0 0.276 0.224 0.5 0.5 0.5h2.624l0.634 2.2-8.488 2.529 2.723-8.37zM24.49 1.179c0.211-0.211 0.578-0.211 0.789 0l5.235 5.235c0.105 0.105 0.163 0.245 0.163 0.394 0 0.148-0.058 0.289-0.164 0.395l-3.371 3.372-6.023-6.023 3.371-3.373z"></path>
</symbol>
<symbol id="icon-certificate" viewBox="0 0 30 30" stroke-width="0.5" fill="currentColor">
<path d="M13 19.95v2.050h12.998c0.554 0 1.002-0.449 1.002-1.007v-12.985c0-0.556-0.439-1.007-1.002-1.007h-19.995c-0.554 0-1.002 0.449-1.002 1.007v12.985c0 0.556 0.439 1.007 1.002 1.007h1.998v-2.050c-0.619-0.631-1-1.496-1-2.45 0-1.933 1.567-3.5 3.5-3.5s3.5 1.567 3.5 3.5c0 0.954-0.381 1.818-1 2.45v0 0zM9 20.663v3.937l1.5-1.5 1.5 1.5v-3.937c-0.455 0.216-0.963 0.337-1.5 0.337s-1.045-0.121-1.5-0.337v0 0zM8 23h-1.995c-1.108 0-2.005-0.895-2.005-2v-13c0-1.11 0.898-2 2.005-2h19.99c1.108 0 2.005 0.895 2.005 2v13c0 1.11-0.898 2-2.005 2h-12.995v4l-2.5-2.5-2.5 2.5v-4zM7 11v1h18v-1h-18zM16 14v1h9v-1h-9zM19 17v1h6v-1h-6zM10.5 20c1.381 0 2.5-1.119 2.5-2.5s-1.119-2.5-2.5-2.5c-1.381 0-2.5 1.119-2.5 2.5s1.119 2.5 2.5 2.5v0z"></path>
</symbol>
<symbol id="icon-brush" viewBox="0 0 32 32">
<path d="M4.421 21.701c-2.424 2.381-0.376 4.826-3.595 8.446-1.453 1.637 5.981 1.138 9.662-2.482 1.563-1.538 1.122-3.774-0.554-5.422-1.675-1.645-3.952-2.080-5.514-0.542zM31.262 1.054c-1.242-1.222-15.006 9.806-19.102 13.834-2.034 2-2.712 3.072-3.334 3.872-0.272 0.35 0.088 0.456 0.246 0.538 0.806 0.413 1.37 0.794 2.098 1.509 0.73 0.715 1.118 1.269 1.534 2.062 0.085 0.157 0.194 0.509 0.547 0.243 0.816-0.613 1.906-1.282 3.939-3.278 4.098-4.026 15.317-17.558 14.072-18.779z"></path>
</symbol>
<symbol viewBox="0 0 26 26" id="paint-brush" >
  <path stroke-linecap="round" stroke-linejoin="round" d="M9.53 16.122a3 3 0 00-5.78 1.128 2.25 2.25 0 01-2.4 2.245 4.5 4.5 0 008.4-2.245c0-.399-.078-.78-.22-1.128zm0 0a15.998 15.998 0 003.388-1.62m-5.043-.025a15.994 15.994 0 011.622-3.395m3.42 3.42a15.995 15.995 0 004.764-4.648l3.876-5.814a1.151 1.151 0 00-1.597-1.597L14.146 6.32a15.996 15.996 0 00-4.649 4.763m3.42 3.42a6.776 6.776 0 00-3.42-3.42" />
</symbol>
<symbol id="icon-graduation-cap" viewBox="0 0 20 18" fill="currentColor">
<path d="M3.302 12.238c0.464 1.879 1.054 2.701 3.022 3.562 1.969 0.86 2.904 1.8 3.676 1.8s1.648-0.822 3.616-1.684c1.969-0.861 1.443-1.123 1.907-3.002l-5.523 2.686-6.698-3.362zM19.511 7.336l-8.325-4.662c-0.652-0.365-1.72-0.365-2.372 0l-8.326 4.662c-0.652 0.365-0.652 0.963 0 1.328l8.325 4.662c0.652 0.365 1.72 0.365 2.372 0l5.382-3.014-5.836-1.367c-0.225 0.055-0.472 0.086-0.731 0.086-1.052 0-1.904-0.506-1.904-1.131 0-0.627 0.853-1.133 1.904-1.133 0.816 0 1.51 0.307 1.78 0.734l6.182 2.029 1.549-0.867c0.651-0.364 0.651-0.962 0-1.327zM16.967 16.17c-0.065 0.385 1.283 1.018 1.411-0.107 0.579-5.072-0.416-6.531-0.416-6.531l-1.395 0.781c0-0.001 1.183 1.125 0.4 5.857z"></path>
</symbol>
<symbol id="icon-location" viewBox="0 0 32 32" fill="currentColor">
<path d="M15.938 32c0 0-9.938-14.062-9.938-20.062 0-11.813 9.938-11.938 9.938-11.938s10.062 0.125 10.062 11.875c0 6.187-10.062 20.125-10.062 20.125zM16 6c-2.209 0-4 1.791-4 4s1.791 4 4 4 4-1.791 4-4-1.791-4-4-4z"></path>
</symbol>
<symbol id="icon-library" viewBox="0 0 34 32" fill="currentColor">
<path d="M32 30v-2h-2v-12h2v-2h-6v2h2v12h-6v-12h2v-2h-6v2h2v12h-6v-12h2v-2h-6v2h2v12h-6v-12h2v-2h-6v2h2v12h-2v2h-2v2h34v-2h-2z"></path>
<path d="M16 0h2l16 10v2h-34v-2l16-10z"></path>
</symbol>
<symbol id="icon-currency-dollar" viewBox="0 0 32 32" fill="currentColor">
<path d="M10 20c-5.523 0-10-4.477-10-10s4.477-10 10-10v0c5.523 0 10 4.477 10 10s-4.477 10-10 10v0zM11 15h1c1.657 0 3-1.343 3-3s-1.343-3-3-3v0h-4.010c-0.552 0-1-0.448-1-1s0.448-1 1-1v0h6.010v-2h-3v-2h-2v2h-1c-1.657 0-3 1.343-3 3s1.343 3 3 3v0h4c0.552 0 1 0.448 1 1s-0.448 1-1 1v0h-6v2h3v2h2v-2z"></path>
</symbol>
<symbol id="icon-banknote" viewBox="0 0 32 32" fill="currentColor">
<path d="M31.415 10.586l-10-10c-0.496-0.496-1.215-0.695-1.896-0.527-0.359 0.088-0.68 0.273-0.934 0.527-0.227 0.227-0.398 0.508-0.496 0.822-0.453 1.469-1.236 2.746-2.395 3.904-1.548 1.547-3.564 2.719-5.697 3.958-2.264 1.312-4.603 2.672-6.52 4.588-1.629 1.631-2.738 3.445-3.388 5.551-0.219 0.711-0.028 1.48 0.496 2.006l10 10c0.496 0.496 1.215 0.695 1.896 0.527 0.359-0.090 0.68-0.273 0.934-0.527 0.227-0.227 0.398-0.508 0.496-0.824 0.454-1.469 1.237-2.746 2.397-3.904 1.547-1.547 3.562-2.717 5.697-3.955 2.262-1.314 4.602-2.674 6.518-4.59 1.629-1.629 2.738-3.445 3.389-5.551 0.218-0.71 0.026-1.482-0.497-2.005zM12 30c-3.312-3.312-6.688-6.689-10-10 2.842-9.201 15.16-8.799 18-18 3.312 3.311 6.689 6.688 10.002 10-2.843 9.199-15.161 8.799-18.002 18zM19.562 14.9c-0.326-0.273-0.654-0.459-0.984-0.551-0.328-0.092-0.656-0.129-0.988-0.105-0.328 0.025-0.664 0.1-1 0.229-0.336 0.131-0.674 0.273-1.014 0.438-0.537-0.617-1.074-1.227-1.611-1.793 0.242-0.219 0.477-0.33 0.703-0.338 0.227-0.010 0.445 0.014 0.652 0.066 0.211 0.053 0.404 0.098 0.582 0.133 0.18 0.035 0.336-0.004 0.473-0.119 0.145-0.125 0.225-0.287 0.236-0.482 0.010-0.197-0.064-0.389-0.229-0.576-0.211-0.242-0.465-0.389-0.77-0.443-0.301-0.053-0.609-0.049-0.93 0.021-0.316 0.072-0.617 0.191-0.902 0.359s-0.514 0.34-0.684 0.508c-0.065-0.062-0.13-0.123-0.195-0.184-0.072-0.066-0.162-0.102-0.27-0.1-0.109 0-0.199 0.047-0.273 0.133-0.072 0.084-0.105 0.182-0.092 0.285 0.010 0.107 0.053 0.189 0.127 0.252 0.065 0.055 0.13 0.109 0.195 0.166-0.256 0.309-0.467 0.65-0.633 1.010-0.168 0.361-0.268 0.719-0.305 1.066-0.039 0.35-0.002 0.67 0.105 0.967 0.107 0.299 0.305 0.553 0.594 0.793 0.471 0.391 1.025 0.557 1.668 0.52 0.641-0.039 1.332-0.23 2.075-0.629 0.59 0.682 1.182 1.359 1.773 1.988-0.25 0.211-0.469 0.332-0.662 0.371-0.193 0.041-0.365 0.037-0.521-0.010-0.156-0.049-0.301-0.119-0.434-0.209-0.133-0.092-0.264-0.17-0.395-0.234-0.129-0.064-0.262-0.1-0.398-0.102s-0.281 0.064-0.441 0.201c-0.164 0.143-0.246 0.309-0.246 0.496s0.086 0.375 0.254 0.566c0.17 0.191 0.391 0.352 0.658 0.479s0.569 0.207 0.901 0.229c0.332 0.023 0.682-0.027 1.051-0.164 0.371-0.135 0.738-0.379 1.1-0.742 0.174 0.17 0.35 0.332 0.525 0.488 0.074 0.064 0.164 0.096 0.273 0.088 0.105-0.004 0.197-0.053 0.27-0.141 0.074-0.090 0.105-0.189 0.094-0.293-0.010-0.105-0.053-0.186-0.125-0.244-0.176-0.141-0.352-0.289-0.527-0.445 0.299-0.367 0.539-0.754 0.717-1.137 0.178-0.385 0.283-0.756 0.318-1.1 0.035-0.346-0.006-0.658-0.119-0.941-0.112-0.287-0.311-0.533-0.596-0.77zM13.971 15.578c-0.283 0.012-0.53-0.082-0.746-0.291-0.092-0.088-0.156-0.195-0.195-0.322-0.041-0.127-0.055-0.266-0.039-0.418 0.014-0.15 0.059-0.307 0.137-0.465 0.074-0.158 0.184-0.316 0.324-0.469 0.507 0.504 1.013 1.057 1.52 1.629-0.384 0.211-0.718 0.324-1.001 0.336zM18.688 17.58c-0.090 0.166-0.193 0.314-0.314 0.443-0.561-0.566-1.121-1.188-1.68-1.826 0.143-0.064 0.293-0.131 0.455-0.199s0.324-0.113 0.486-0.141c0.166-0.025 0.33-0.018 0.494 0.021 0.162 0.041 0.316 0.129 0.459 0.268 0.141 0.141 0.23 0.287 0.266 0.445 0.039 0.16 0.041 0.322 0.014 0.488-0.029 0.167-0.088 0.333-0.18 0.501zM14.717 22.18c0.197-0.159 0.487-0.151 0.668 0.033 0.196 0.195 0.196 0.514 0 0.709-0.016 0.016-0.033 0.027-0.051 0.041l0.002 0.002c-0.633 0.481-1.153 0.914-1.714 1.475-0.507 0.506-0.965 1.039-1.361 1.58l-0.639 0.875c-0.020 0.036-0.044 0.069-0.074 0.1-0.196 0.195-0.515 0.195-0.71 0-0.17-0.17-0.191-0.432-0.066-0.627l-0.002-0.002 0.684-0.934c0.427-0.584 0.918-1.156 1.461-1.699 0.565-0.567 1.175-1.073 1.8-1.553h0.002zM18.378 7.715c0.506-0.506 0.963-1.037 1.36-1.581l0.664-0.91c0.024-0.043 0.051-0.086 0.088-0.123 0.197-0.197 0.516-0.197 0.713 0 0.187 0.188 0.195 0.485 0.025 0.684l0.002 0.002-0.684 0.938c-0.428 0.584-0.918 1.154-1.461 1.697-0.565 0.565-1.174 1.073-1.799 1.553l-0.004-0.002c-0.199 0.183-0.508 0.179-0.699-0.014-0.197-0.197-0.197-0.518 0-0.715 0.035-0.037 0.076-0.063 0.117-0.086 0.588-0.449 1.155-0.92 1.678-1.443z"></path>
</symbol>
<symbol id="icon-map-o" viewBox="0 0 32 28" fill="currentColor">
<path d="M31.563 0.172c0.266 0.187 0.438 0.5 0.438 0.828v22c0 0.406-0.25 0.781-0.625 0.922l-10 4c-0.25 0.109-0.5 0.109-0.75 0l-9.625-3.844-9.625 3.844c-0.125 0.063-0.25 0.078-0.375 0.078-0.203 0-0.391-0.063-0.562-0.172-0.266-0.187-0.438-0.5-0.438-0.828v-22c0-0.406 0.25-0.781 0.625-0.922l10-4c0.25-0.109 0.5-0.109 0.75 0l9.625 3.844 9.625-3.844c0.313-0.125 0.656-0.094 0.938 0.094zM11.5 2.281v19.844l9 3.594v-19.844zM2 5.672v19.844l8.5-3.391v-19.844zM30 22.328v-19.844l-8.5 3.391v19.844z"></path>
</symbol>
<symbol id="icon-account_balance" viewBox="0 0 24 24" fill="currentColor">
<path d="M11.484 0.984l9.516 5.016v2.016h-18.984v-2.016zM15.984 9.984h3v7.031h-3v-7.031zM2.016 21.984v-3h18.984v3h-18.984zM9.984 9.984h3v7.031h-3v-7.031zM3.984 9.984h3v7.031h-3v-7.031z"></path>
</symbol>
<symbol id="icon-pig" viewBox="0 0 32 32" fill="transparent" stroke="currentColor" stroke-width="1.4">
<path d="M24.674 21.909c0 0 3.33-2.278 3.33-6.771 0-6.688-7.088-9.161-10.899-9.095-3.812 0.067-4.948 1.070-4.948 1.070s-1.297-0.943-2.672-1.733c-1.052-0.41-1.296-0.469-2.027-0.234-0.585 0-0.217 0.974 0.018 1.325 0.233 0.351 1.366 2.29 1.366 2.29s-2.378 2.449-2.554 4.059c0-0.029-1.12-0.009-1.734-0.009s-0.556 0.669-0.556 0.669l0.017 4.714c0 0-0.038 0.669 0.519 0.669 0.556 0 1.738 0.013 1.738 0.013s1.663 2.415 2.717 2.854c0 0.029-0.911 2.503-0.911 2.503s-0.439 0.761 0.351 1.054c0.79 0.292 2.851 1.157 3.729 1.421s1.003-0.334 1.003-0.334l0.869-1.877 5.685 0.009 0.869 1.935c0 0 0.167 0.898 1.337 0.401 1.171-0.497 2.449-1.087 3.415-1.584 0.965-0.497 0.33-1.426 0.33-1.426l-0.992-1.923zM9.322 13.764c-0.533 0-0.965-0.433-0.965-0.966s0.432-0.965 0.965-0.965 0.966 0.432 0.966 0.965-0.433 0.966-0.966 0.966zM22.925 10.756c-0.308 0.365-0.509 0.096-0.757 0.023 0 0-1.051-0.975-2.595-1.43-1.599-0.47-3.282-0.243-3.282-0.243-0.248-0.073-0.549-0.081-0.551-0.464 0.013-0.473 0.587-0.477 0.58-0.493 0 0 1.894-0.175 3.479 0.291 1.559 0.458 2.75 1.454 2.75 1.454s0.637 0.439 0.376 0.862z"></path>
</symbol>
<symbol id="icon-bank1" viewBox="0 0 30 28" fill="currentColor">
<path d="M15 0l15 6v2h-2c0 0.547-0.484 1-1.078 1h-23.844c-0.594 0-1.078-0.453-1.078-1h-2v-2zM4 10h4v12h2v-12h4v12h2v-12h4v12h2v-12h4v12h0.922c0.594 0 1.078 0.453 1.078 1v1h-26v-1c0-0.547 0.484-1 1.078-1h0.922v-12zM28.922 25c0.594 0 1.078 0.453 1.078 1v2h-30v-2c0-0.547 0.484-1 1.078-1h27.844z"></path>
</symbol>
<symbol id="icon-mobile" viewBox="0 0 32 32" fill="currentColor">
<path d="M23 0h-14c-1.65 0-3 1.35-3 3v26c0 1.65 1.35 3 3 3h14c1.65 0 3-1.35 3-3v-26c0-1.65-1.35-3-3-3zM12 1.5h8v1h-8v-1zM16 30c-1.105 0-2-0.895-2-2s0.895-2 2-2 2 0.895 2 2-0.895 2-2 2zM24 24h-16v-20h16v20z"></path>
</symbol>
<symbol id="icon-phone" viewBox="0 0 32 32" fill="currentColor">
<path d="M22 20c-2 2-2 4-4 4s-4-2-6-4-4-4-4-6 2-2 4-4-4-8-6-8-6 6-6 6c0 4 4.109 12.109 8 16s12 8 16 8c0 0 6-4 6-6s-6-8-8-6z"></path>
</symbol>
<symbol id="icon-phone-square"  viewBox="0 0 34 40" fill="currentColor">
<path d="M30 27.961c0-0.117 0-0.258-0.047-0.375-0.141-0.422-3.562-2.156-4.219-2.531-0.445-0.258-0.984-0.773-1.523-0.773-1.031 0-2.555 3.070-3.469 3.070-0.469 0-1.055-0.422-1.477-0.656-3.094-1.734-5.227-3.867-6.961-6.961-0.234-0.422-0.656-1.008-0.656-1.477 0-0.914 3.070-2.438 3.070-3.469 0-0.539-0.516-1.078-0.773-1.523-0.375-0.656-2.109-4.078-2.531-4.219-0.117-0.047-0.258-0.047-0.375-0.047-0.609 0-1.805 0.281-2.367 0.516-1.547 0.703-2.672 3.656-2.672 5.273 0 1.57 0.633 3 1.172 4.453 1.875 5.133 7.453 10.711 12.586 12.586 1.453 0.539 2.883 1.172 4.453 1.172 1.617 0 4.57-1.125 5.273-2.672 0.234-0.562 0.516-1.758 0.516-2.367zM36 9.75v22.5c0 3.727-3.023 6.75-6.75 6.75h-22.5c-3.727 0-6.75-3.023-6.75-6.75v-22.5c0-3.727 3.023-6.75 6.75-6.75h22.5c3.727 0 6.75 3.023 6.75 6.75z"></path>
</symbol>
<symbol id="icon-messenger" viewBox="0 0 36 36" fill="currentColor">
<path d="M0 15.52c0-8.92 6.987-15.52 16-15.52s16 6.6 16 15.52-6.987 15.52-16 15.52c-1.613 0-3.173-0.213-4.627-0.613-0.1-0.028-0.214-0.044-0.333-0.044-0.188 0-0.367 0.041-0.529 0.114l0.008-0.003-3.187 1.4c-0.153 0.070-0.332 0.111-0.521 0.111-0.694 0-1.259-0.553-1.279-1.242l-0-0.002-0.093-2.853c-0.016-0.361-0.177-0.681-0.426-0.906l-0.001-0.001c-3.085-2.791-5.015-6.808-5.015-11.277 0-0.071 0.001-0.143 0.001-0.214l-0 0.011zM11.093 12.6l-4.693 7.467c-0.467 0.707 0.427 1.52 1.093 1l5.053-3.827c0.347-0.267 0.8-0.267 1.16 0l3.733 2.8c1.12 0.84 2.72 0.533 3.467-0.64l4.693-7.467c0.467-0.707-0.427-1.507-1.093-1l-5.053 3.827c-0.333 0.267-0.8 0.267-1.147 0l-3.733-2.8c-0.397-0.303-0.901-0.485-1.447-0.485-0.853 0-1.602 0.445-2.028 1.115l-0.006 0.010z"></path>
</symbol>
<symbol id="icon-facebook2" viewBox="0 0 36 36" fill="currentColor">
<path d="M29 0h-26c-1.65 0-3 1.35-3 3v26c0 1.65 1.35 3 3 3h13v-14h-4v-4h4v-2c0-3.306 2.694-6 6-6h4v4h-4c-1.1 0-2 0.9-2 2v2h6l-1 4h-5v14h9c1.65 0 3-1.35 3-3v-26c0-1.65-1.35-3-3-3z"></path>
</symbol>
<symbol id="icon-yumyard" viewBox="0 0 100 110"  fill="currentColor">
<path d="M39.41254,60.49011h-.001a17.24554,17.24554,0,0,1-5.75-1.03015C22.216,68.91675,11.73578,77.159,8.2226,81.71881c-3.4004,4.414-4.42139,8.72345-1.54273,11.60187,2.87866,2.87787,7.18872,1.85718,11.60352-1.543,5.4292-4.1814,16.07592-18.23212,27.78125-32.03461-.12427-.14068-.24488-.2763-.36988-.418A18.79385,18.79385,0,0,1,39.41254,60.49011Z"/><path d="M53.4455,40.93585,59.06,46.559a2.01742,2.01742,0,0,1,.49951.14246,12.74981,12.74981,0,0,0,14.52881-2.74115L94.27606,22.94983a2.48578,2.48578,0,0,0,.15357-3.33392,2.44164,2.44164,0,0,0-3.58374-.16315L72.5473,37.74854a2.51979,2.51979,0,0,1-3.34082.26556,2.42435,2.42435,0,0,1-.18579-3.59607L87.31952,16.12238a2.51891,2.51891,0,0,0,.26562-3.34028,2.42536,2.42536,0,0,0-3.59668-.18573L65.68964,30.89221a2.51959,2.51959,0,0,1-3.34058.26563,2.4245,2.4245,0,0,1-.186-3.59619l18.33423-18.331a2.47848,2.47848,0,0,0,.21021-3.33044,2.44365,2.44365,0,0,0-3.57593-.22827L56.04828,25.92316a12.74443,12.74443,0,0,0-2.7417,14.52624A2.01825,2.01825,0,0,1,53.4455,40.93585Z"/><path d="M93.23767,86.44983,13.83612,6.927c-3.56726-3.57275-8.72638-2.18048-8.832,4.20154C4.85522,20.13867,8.67822,31.893,21.14648,45.20221c5.11695,5.46216,7.712,7.45923,11.49811,9.45856a13.68254,13.68254,0,0,0,12.25135.70648,3.03034,3.03034,0,0,1,3.59271,1.07818C68.0481,78.60712,77.07178,87.28015,84.90515,92.96,92.76392,98.6582,97.87268,91.09192,93.23767,86.44983Z"/>
</symbol>
<symbol id="icon-adrespect" viewBox="0 0 18 24" fill="currentColor">
<path d="M10.6245 4.72732C10.8425 4.72732 11.054 4.73699 11.2655 4.7532C11.9514 4.81155 12.6116 4.96395 13.2301 5.19088C14.791 5.76792 16.1146 6.84099 17.0088 8.22524C16.6371 5.34652 14.9064 2.89895 12.4866 1.57305C11.2431 0.889035 9.81688 0.5 8.30092 0.5C7.02213 0.5 5.035 0.77227 3.9389 1.26827C2.29795 1.868 1.2243 2.84379 0 3.94924L5.07348 7.15543C6.46124 5.65771 8.43232 4.72732 10.6245 4.72732Z"/>
<path d="M15.9666 11.9554H15.9634C15.8096 11.9684 15.6558 11.9781 15.5051 11.9846H15.4667C14.8289 12.0008 14.1846 11.9359 13.5597 11.7901C12.7488 11.602 11.9604 11.2811 11.2329 10.8175C10.7521 10.516 10.3002 10.153 9.88356 9.73156C9.76498 9.61485 9.65287 9.49162 9.5471 9.36844C8.76829 8.4737 8.23305 7.44604 7.93499 6.36328C7.06964 6.77823 6.29399 7.35526 5.64658 8.049C4.89982 8.84973 4.32293 9.81261 3.97038 10.8792C3.89987 11.0964 3.83574 11.32 3.78126 11.5502L3.62743 12.4254L3.0153 15.9331L2.87109 16.75L3.40309 16.2897L4.2973 15.5116L4.15309 13.5537C4.12104 13.3559 4.10497 13.1549 4.10497 12.9474V12.9279L9.29069 13.0447C8.44778 13.4337 6.96064 14.7433 6.38054 15.3593L6.37412 15.369C6.24272 15.5084 6.11774 15.6511 5.99595 15.8002L5.55363 17.5962L5.50237 17.8036H5.50558L5.38062 18.3093L5.35817 18.4034L4.10497 23.4995L8.83232 20.9416L8.87723 20.705L9.05673 19.7519C9.07596 19.6612 9.09517 19.5834 9.1144 19.5153C9.16568 19.3208 9.19135 19.2268 9.2234 19.1393C9.27468 18.9772 9.33237 18.8183 9.38685 18.6756C10.4669 15.8326 11.8226 15.1842 11.7328 15.1842C11.8034 15.1259 11.8803 15.0707 11.9572 15.0189C12.6142 14.5553 13.4732 14.2214 14.4026 14.0918C14.5436 14.0723 14.7039 14.0561 14.8705 14.0528L14.9155 14.0496L15.7712 13.0868L16.9025 11.8095L16.8416 11.8225C16.5499 11.8841 16.2583 11.9295 15.9666 11.9554Z"/>
</symbol>
<symbol id="icon-tree" viewBox="0 0 512 512" fill="currentColor">
<g>
	<path class="st0" d="M449.414,478.037l-72.517-92.833c-16.287-0.187-24.22-12.898-28.482-19.753
		c-0.437-0.718-0.968-1.57-1.499-2.389c-0.531,0.812-1.062,1.663-1.499,2.374c-4.294,6.901-12.304,19.753-28.81,19.753
		c-16.521-0.016-24.5-12.875-28.794-19.777c-0.437-0.718-0.968-1.57-1.499-2.397c-0.547,0.82-1.062,1.671-1.515,2.39
		c-4.294,6.901-12.305,19.745-28.795,19.745c-16.521-0.016-24.5-12.875-28.794-19.792c-0.437-0.711-0.968-1.561-1.499-2.389
		c-0.547,0.828-1.078,1.678-1.515,2.389c-4.294,6.902-12.32,19.753-28.825,19.753c-16.521-0.015-24.5-12.882-28.795-19.792
		c-0.437-0.71-0.968-1.561-1.499-2.381c-0.516,0.812-1.047,1.663-1.484,2.373c-4.263,6.84-12.18,19.473-28.357,19.715
		l-72.658,93.012c-10.29,13.21-5.044,24.008,11.727,24.008c18.176,0,26.343-18.98,43.598-18.98
		c17.271,0,17.271,28.935,34.526,28.935c17.27,0,17.27-28.935,34.525-28.935c17.271,0,17.271,28.935,34.526,28.935
		c17.27,0,17.27-28.935,34.525-28.935c17.271,0,17.271,28.935,34.526,28.935c17.271,0,17.271-28.935,34.51-28.935
		c17.286,0,17.286,28.935,34.51,28.935c17.271,0,17.271-28.935,34.526-28.935c17.27,0,25.453,18.98,43.614,18.98
		C454.458,502.046,459.721,491.247,449.414,478.037z"/>
	<path class="st0" d="M134.783,366.84c15.162,0,15.162-24.359,30.309-24.344c15.162,0,15.131,24.376,30.278,24.391
		c15.178,0,15.193-24.367,30.356-24.344c15.147,0,15.131,24.367,30.278,24.383c15.148,0,15.163-24.368,30.31-24.337
		c15.162,0,15.146,24.36,30.293,24.376c15.162,0,15.162-24.36,30.309-24.337c15.163,0,15.148,24.36,30.294,24.383
		c16.755,0,21.924-10.697,11.477-23.797l-60.93-76.484c-2.483,0.422-5.075,0.703-7.808,0.703c-10.868,0-17.411-6.246-21.315-11.376
		c-3.92,5.13-10.447,11.376-21.315,11.376c-10.853,0-17.396-6.246-21.316-11.376c-3.919,5.13-10.462,11.376-21.33,11.376
		c-10.852,0-17.396-6.238-21.315-11.368c-3.904,5.13-10.447,11.368-21.3,11.368c-2.732,0-5.309-0.281-7.792-0.703l-60.947,76.288
		C112.859,356.106,118.013,366.825,134.783,366.84z"/>
	<path class="st0" d="M192.075,249.212c10.65,0,10.65-16.24,21.299-16.24s10.649,16.24,21.315,16.24
		c10.681,0,10.681-16.24,21.314-16.24c10.666,0,10.666,16.24,21.331,16.24c10.634,0,10.634-16.24,21.315-16.24
		c10.65,0,10.65,16.24,21.3,16.24c16.755,0,22.548-11.204,12.882-24.876l-59.26-83.776c-9.635-13.694-25.484-13.694-35.165,0
		l-59.228,83.776C169.496,238.007,175.289,249.212,192.075,249.212z"/>
	<polygon class="st0" points="213.656,130.293 256.004,104.176 298.321,130.293 286.579,81.956 324.492,49.766 274.899,46.01 
		256.004,0 237.094,46.01 187.501,49.766 225.414,81.956 	"/>
</g>
</symbol>
<symbol id="icon-camera" viewBox="0 0 32 32" fill="currentColor">
<path d="M16 10.001c-4.419 0-8 3.581-8 8s3.581 8 8 8c4.418 0 8-3.582 8-8s-3.582-8-8-8zM20.555 21.906c-2.156 2.516-5.943 2.807-8.459 0.65-2.517-2.156-2.807-5.944-0.65-8.459 2.155-2.517 5.943-2.807 8.459-0.65 2.515 2.155 2.806 5.944 0.65 8.459zM16 14.001c0.276 0 0.5 0.224 0.5 0.5s-0.224 0.5-0.5 0.5c-1.657 0-2.999 1.343-3 2.999v0.002c0 0.275-0.224 0.5-0.5 0.5s-0.5-0.225-0.5-0.5v-0.002c0.001-2.208 1.791-3.999 4-3.999zM29.492 9.042l-4.334-0.723-1.373-3.434c-0.459-1.145-1.553-1.885-2.785-1.885h-10c-1.232 0-2.326 0.74-2.786 1.886l-1.372 3.433-4.333 0.723c-1.454 0.241-2.509 1.485-2.509 2.958v15c0 1.654 1.346 3 3 3h26c1.654 0 3-1.346 3-3v-15c0-1.473-1.055-2.717-2.508-2.958zM30 27c0 0.553-0.447 1-1 1h-26c-0.553 0-1-0.447-1-1v-15c0-0.489 0.354-0.906 0.836-0.986l5.444-0.907 1.791-4.478c0.153-0.379 0.52-0.629 0.929-0.629h10c0.408 0 0.775 0.249 0.928 0.629l1.791 4.478 5.445 0.907c0.482 0.080 0.836 0.497 0.836 0.986v15z"></path>
</symbol>
<symbol id="icon-science" viewBox="0 0 60.002346 60" fill="currentColor">
<g
     id="Page-1"
     stroke="none"
     stroke-width="1"
     fill="none"
     fill-rule="evenodd"
     transform="translate(0.00234337)">
    <g
       id="014---Study"
       transform="translate(-1)"
       fill="currentColor"
       fill-rule="nonzero"
       style="fill:currentColor;fill-opacity:1;stroke:none">
      <path
         d="m 2.471,37.391 c 0.3292638,0.228201 0.6767731,0.42888 1.039,0.6 0.432,0.221 1.157,0.591 1.207,0.85 0.063726,0.34175 0.022953,0.694774 -0.117,1.013 -0.149,0.32 -0.306,0.595 -0.44,0.833 -0.367,0.646 -0.979,1.729 -0.055,2.485 0.216,0.2 0.589,0.489 0.93,0.75 -0.2505846,0.437553 -0.3641457,0.940218 -0.326,1.443 0.053292,0.395819 0.2679234,0.75197 0.593,0.984 0.222,0.156 0.459,0.292 0.693,0.425 0.591,0.337 0.822,0.493 0.9,0.807 0.055727,0.402476 0.021575,0.812299 -0.1,1.2 -0.058,0.268 -0.116,0.536 -0.149,0.8 -0.099403,0.911275 0.012843,1.833198 0.328,2.694 0.4494219,1.588697 1.8862194,2.695644 3.537,2.725 0.27559,-8.72e-4 0.550363,-0.03003 0.82,-0.087 2.856741,-0.677321 5.671799,-1.519735 8.431,-2.523 2.253,1.322 3.676,5.342 4.047,6.851 0.110772,0.446087 0.511365,0.759218 0.971,0.759 l 25.1,-0.07 c 0.318095,-6.17e-4 0.616922,-0.152533 0.804861,-0.409173 C 50.8728,59.264188 50.927429,58.933444 50.832,58.63 c -0.247949,-0.677428 -0.589242,-1.316932 -1.014,-1.9 -0.239521,-0.344814 -0.455672,-0.705288 -0.647,-1.079 -0.451583,-0.917405 -0.829118,-1.869437 -1.129,-2.847 -0.570799,-1.932518 -0.966396,-3.912515 -1.182,-5.916 -0.353402,-2.984302 0.09535,-6.008864 1.3,-8.762 0.105,-0.229 1.672,-3.382 1.814,-3.639 0.175239,-0.311357 0.171059,-0.692551 -0.01096,-0.999991 -0.182023,-0.30744 -0.514237,-0.494417 -0.8715,-0.4905 -0.357262,0.0039 -0.685296,0.198134 -0.860535,0.509491 -0.166,0.295 -1.807,3.609 -1.9,3.8 -1.353782,3.084566 -1.85986,6.474533 -1.466,9.82 0.233738,2.125279 0.658795,4.225129 1.27,6.274 0.328965,1.075282 0.743973,2.122331 1.241,3.131 0.22796,0.450734 0.486915,0.88511 0.775,1.3 l 0.067,0.1 L 25.536,58 c -0.664246,-2.372011 -1.86909,-4.557844 -3.52,-6.386 l 0.9,-0.316 c 0.669,-0.233 1.173,-0.409 1.431,-0.492 4.285,-1.355 6.427,-3.306 6.369,-5.8 0.0011,-0.266202 -0.106953,-0.521222 -0.298929,-0.70564 C 30.225096,44.115942 29.965944,44.018233 29.7,44.03 c -0.551955,0.0131 -0.988854,0.47104 -0.976,1.023 0.024,1.029 -0.819,2.53 -4.977,3.845 -0.271,0.087 -0.792,0.269 -1.483,0.51 -0.744,0.26 -1.689,0.591 -2.733,0.945 h -0.006 c -2.814293,1.031296 -5.685728,1.899404 -8.6,2.6 C 9.9931145,53.12947 9.087016,52.542575 8.867,51.62 8.6540397,51.050589 8.5736708,50.440127 8.632,49.835 8.659,49.626 8.706,49.417 8.752,49.208 8.9553898,48.516901 8.9849314,47.786264 8.838,47.081 8.5478123,46.162882 7.872544,45.416437 6.988,45.036 6.918,44.997 6.849,44.957 6.78,44.917 6.8883395,44.69898 7.017614,44.492007 7.166,44.299 7.3336534,44.086311 7.4078719,43.814717 7.371684,43.546323 7.3354962,43.27793 7.1919969,43.035692 6.974,42.875 6.734,42.699 6.168,42.275 5.753,41.941 5.801,41.854 5.853,41.758 5.904,41.672 6.061,41.396 6.241,41.072 6.415,40.706 6.7319516,40.005186 6.8251841,39.223709 6.682,38.468 6.442,37.248 5.273,36.65 4.42,36.214 4.1326192,36.077282 3.8570164,35.917071 3.596,35.735 3.3817006,35.591497 3.1808759,35.428829 2.996,35.249 2.996,35.098 3.158,34.731 3.92,33.803 5.7111124,31.497631 7.246768,29.004706 8.5,26.368 8.7352421,25.954816 8.8676334,25.491103 8.886,25.016 8.7838602,24.010464 8.2509367,23.098549 7.425,22.516 7.025,22.145 6.639,21.795 6.595,21.471 6.60291,21.234601 6.655504,21.001836 6.75,20.785 6.913,20.357 7.102,19.937 7.29,19.517 7.7005653,18.670917 8.0284218,17.787144 8.269,16.878 l 0.1,-0.426 c 0.2123968,-0.999817 0.4859102,-1.985668 0.819,-2.952 0.7885408,-2.174806 2.008651,-4.1677313 3.587,-5.859 1.072775,-1.0940014 2.338321,-1.9805279 3.733,-2.615 0.322968,-0.1529097 0.539827,-0.4665055 0.568887,-0.8226589 0.02906,-0.3561534 -0.134092,-0.7007562 -0.428,-0.904 C 16.354979,3.0960974 15.974968,3.0650903 15.652,3.218 14.033518,3.9585804 12.565864,4.9919387 11.323,6.266 9.5580083,8.154048 8.1932931,10.379704 7.311,12.809 6.950487,13.853484 6.6545944,14.919165 6.425,16 l -0.1,0.422 c -0.2131117,0.785469 -0.5004038,1.548903 -0.858,2.28 -0.2,0.455 -0.406,0.91 -0.587,1.384 -0.2277547,0.525379 -0.317923,1.100116 -0.262,1.67 0.2011323,0.896483 0.7187937,1.690372 1.458,2.236 0.488,0.448 0.809,0.764 0.813,1.039 -0.036125,0.151894 -0.093348,0.29798 -0.17,0.434 -1.197808,2.522973 -2.665725,4.908589 -4.378,7.115 -0.723,0.88 -1.481,1.908 -1.322,2.937 0.2129448,0.794189 0.7361568,1.469464 1.452,1.874 z"
         id="Shape"
         style="fill:currentColor;fill-opacity:1;stroke:none" />
      <path
         d="m 12.165,17.792 0.1,-0.435 c 0.177179,-0.83589 0.402217,-1.660915 0.674,-2.471 0.600771,-1.672018 1.537312,-3.203426 2.752,-4.5 0.271339,-0.288983 0.570446,-0.5505759 0.893,-0.781 C 17.032731,9.283018 17.135482,8.6582314 16.8135,8.2095 16.491518,7.7607686 15.866731,7.658018 15.418,7.98 c -0.427011,0.3053874 -0.82322,0.6516933 -1.183,1.034 -1.400325,1.494511 -2.480727,3.259226 -3.175,5.186 -0.301194,0.887624 -0.549957,1.792184 -0.745,2.709 l -0.1,0.44 c -0.08316,0.349789 0.02786,0.717297 0.290765,0.962544 0.26291,0.245248 0.637239,0.330479 0.98041,0.223232 0.34317,-0.107248 0.602352,-0.390464 0.678825,-0.741776 z"
         id="path864"
         style="fill:currentColor;fill-opacity:1;stroke:none" />
      <circle
         id="Oval"
         cx="10"
         cy="21"
         r="1"
         style="fill:currentColor;fill-opacity:1;stroke:none" />
      <path
         d="M 61,29.06 V 4.94 C 61.001661,3.8717817 60.138213,3.0038591 59.07,3 H 57 V 1.932 C 57.010557,0.87738862 56.165582,0.0131787 55.111,0 H 43.556 C 42.152826,0.01208554 40.836492,0.68135777 40,1.808 39.876867,1.6416665 39.743263,1.4833459 39.6,1.334 39.541031,1.269714 39.473775,1.2135551 39.4,1.167 38.593222,0.42529941 37.539866,0.00944479 36.444,0 H 24.889 C 23.834418,0.0131787 22.989443,0.87738862 23,1.932 V 3 H 20.93 C 19.861787,3.0038591 18.998339,3.8717817 19,4.94 v 24.12 c -0.0017,1.068218 0.861787,1.936141 1.93,1.94 l 14.08,-0.07 v 1.13 c -0.0017,1.068218 0.861787,1.936141 1.93,1.94 h 6.13 C 44.138213,33.9961 45.001661,33.128218 45,32.06 L 44.93,31 H 59.07 C 60.138213,30.9961 61.001661,30.128218 61,29.06 Z M 43.556,2 H 55 V 20 H 43.556 C 42.632844,20.0032 41.735747,20.306413 41,20.864 V 4.727 C 40.955631,3.2692159 42.098398,2.0499965 43.556,2 Z M 25,22 h 11.444 c 1.528552,0.133699 2.666751,1.469614 2.556,3 H 25 Z m 30,0 -0.007,3 H 41 c -0.110752,-1.530386 1.027448,-2.866301 2.556,-3 z M 25,2 H 36.444 C 37.901602,2.0499965 39.044369,3.2692159 39,4.727 V 20.864 C 38.264253,20.306413 37.367156,20.003169 36.444,20 H 25 Z M 43.563,29.563 C 43.202538,29.92668 43.000208,30.417949 43,30.93 L 43.07,32 37.01,32.06 V 30.93 C 37.008898,29.864547 36.145453,29.001102 35.08,29 L 21,29.06 20.93,5 H 23 v 20 c -0.02859,1.07313 0.815986,1.967333 1.889,2 H 39 c 0,0.016 0.008,0.029 0.009,0.045 C 39.01,27.061 39,27.075 39,27.091 v 1.864 c 0,0.552285 0.447715,1 1,1 0.552285,0 1,-0.447715 1,-1 V 27.091 C 41,27.075 40.992,27.061 40.991,27.045 40.99,27.029 41,27.016 41,27 H 55.111 C 56.184013,26.967333 57.028588,26.07313 57,25 V 4.98 L 59,4.94 59.07,29 H 44.93 c -0.512051,2.08e-4 -1.00332,0.202538 -1.367,0.563 z"
         id="path867"
         style="fill:currentColor;fill-opacity:1;stroke:none" />
      <path
         d="m 28,7 h 8 C 36.552285,7 37,6.5522847 37,6 37,5.4477152 36.552285,5 36,5 h -8 c -0.552285,0 -1,0.4477152 -1,1 0,0.5522847 0.447715,1 1,1 z"
         id="path869"
         style="fill:currentColor;fill-opacity:1;stroke:none" />
      <path
         d="m 28,12 h 8 c 0.552285,0 1,-0.447715 1,-1 0,-0.552285 -0.447715,-1 -1,-1 h -8 c -0.552285,0 -1,0.447715 -1,1 0,0.552285 0.447715,1 1,1 z"
         id="path871"
         style="fill:currentColor;fill-opacity:1;stroke:none" />
      <path
         d="m 28,17 h 8 c 0.552285,0 1,-0.447715 1,-1 0,-0.552285 -0.447715,-1 -1,-1 h -8 c -0.552285,0 -1,0.447715 -1,1 0,0.552285 0.447715,1 1,1 z"
         id="path873"
         style="fill:currentColor;fill-opacity:1;stroke:none" />
      <path
         d="m 44,7 h 8 C 52.552285,7 53,6.5522847 53,6 53,5.4477152 52.552285,5 52,5 h -8 c -0.552285,0 -1,0.4477152 -1,1 0,0.5522847 0.447715,1 1,1 z"
         id="path875"
         style="fill:currentColor;fill-opacity:1;stroke:none" />
      <path
         d="m 44,12 h 8 c 0.552285,0 1,-0.447715 1,-1 0,-0.552285 -0.447715,-1 -1,-1 h -8 c -0.552285,0 -1,0.447715 -1,1 0,0.552285 0.447715,1 1,1 z"
         id="path877"
         style="fill:currentColor;fill-opacity:1;stroke:none" />
      <path
         d="m 44,17 h 8 c 0.552285,0 1,-0.447715 1,-1 0,-0.552285 -0.447715,-1 -1,-1 h -8 c -0.552285,0 -1,0.447715 -1,1 0,0.552285 0.447715,1 1,1 z"
         id="path879"
         style="fill:currentColor;fill-opacity:1;stroke:none" />
    </g>
  </g></symbol>
</defs>
</svg>



